<!--?xml version="1.0" encoding="utf-8"?-->
<!-- Generator: Adobe Illustrator 18.1.1, SVG Export Plug-In . SVG Version: 6.00 Build 0)  -->

<svg version="1.1" id="_x32_" xmlns="http://www.w3.org/2000/svg" xmlns:xlink="http://www.w3.org/1999/xlink" x="0px" y="0px" viewBox="0 0 512 512" style="width: 256px; height: 256px; opacity: 1;" xml:space="preserve">
<style type="text/css">
	.st0{fill:#4B4B4B;}
</style>
<g>
	<rect y="94.103" class="st0" width="48.569" height="323.795" style="fill: rgb(75, 75, 75);"></rect>
	<rect x="72.854" y="94.103" class="st0" width="24.284" height="323.795" style="fill: rgb(75, 75, 75);"></rect>
	<polygon class="st0" points="121.423,94.103 121.423,417.897 145.708,417.897 169.992,417.897 169.992,94.103 145.708,94.103 	" style="fill: rgb(75, 75, 75);"></polygon>
	<polygon class="st0" points="194.277,94.103 194.277,417.897 218.561,417.897 242.846,417.897 242.846,94.103 218.561,94.103 	" style="fill: rgb(75, 75, 75);"></polygon>
	<rect x="267.13" y="94.103" class="st0" width="24.285" height="323.795" style="fill: rgb(75, 75, 75);"></rect>
	<polygon class="st0" points="339.984,94.103 315.7,94.103 315.7,417.897 339.984,417.897 364.269,417.897 388.554,417.897 
		388.554,94.103 364.269,94.103 	" style="fill: rgb(75, 75, 75);"></polygon>
	<polygon class="st0" points="412.838,94.103 412.838,417.897 437.122,417.897 462.083,417.897 462.083,94.103 437.122,94.103 	" style="fill: rgb(75, 75, 75);"></polygon>
	<rect x="487.044" y="94.103" class="st0" width="24.956" height="323.795" style="fill: rgb(75, 75, 75);"></rect>
</g>
</svg>
